name rise42.5664peak47.7979fall81.9185.mot
datacolumns 19
datarows 32
range 9.30663300000000 9.35829300000000
endheader
time	ground_force1_vx	ground_force1_vy	ground_force1_vz	ground_force1_px	ground_force1_py	ground_force1_pz	ground_force2_vx	ground_force2_vy	ground_force2_vz	ground_force2_px	ground_force2_py	ground_force2_pz	ground_torque1_x	ground_torque1_y	ground_torque1_z	ground_torque2_x	ground_torque2_y	ground_torque2_z	
9.30663300000000	-9.84571400000000	46.65329600000000	-10.17689000000000	0.28023000000000	0.00000000000000	0.08366100000000	-54.58741600000000	808.58127899999999	-55.14501000000000	0.07816500000000	0.00000000000000	-0.08450600000000	0.00000000000000	-5.48104600000000	0.00000000000000	0.00000000000000	-16.88039400000000	0.00000000000000	
9.30830000000000	-10.59824500000000	53.61946600000000	-11.24815000000000	0.28383600000000	0.00000000000000	0.08455500000000	-55.55821900000000	805.89990799999998	-54.74613100000000	0.07722900000000	0.00000000000000	-0.08441400000000	0.00000000000000	-6.13767000000000	0.00000000000000	0.00000000000000	-16.90229700000000	0.00000000000000	
9.30996300000000	-11.16976900000000	60.59074500000000	-12.20335700000000	0.28720100000000	0.00000000000000	0.08537400000000	-56.53531100000000	803.04822899999999	-54.31603700000000	0.07629800000000	0.00000000000000	-0.08431800000000	0.00000000000000	-6.74790800000000	0.00000000000000	0.00000000000000	-16.92518000000000	0.00000000000000	
9.31163100000000	-11.54565000000000	67.49979300000000	-13.02616000000000	0.29036200000000	0.00000000000000	0.08612700000000	-57.51727300000000	800.02375199999994	-53.85478400000000	0.07537300000000	0.00000000000000	-0.08421800000000	0.00000000000000	-7.30188500000000	0.00000000000000	0.00000000000000	-16.94889600000000	0.00000000000000	
9.31329400000000	-11.72070600000000	74.30297400000001	-13.70804600000000	0.29334600000000	0.00000000000000	0.08682500000000	-58.50259200000000	796.82404899999995	-53.36249000000000	0.07445300000000	0.00000000000000	-0.08411400000000	0.00000000000000	-7.79366900000000	0.00000000000000	0.00000000000000	-16.97328000000000	0.00000000000000	
9.31496800000000	-11.69835900000000	80.98016300000000	-14.24783600000000	0.29617700000000	0.00000000000000	0.08747500000000	-59.48967000000000	793.44675700000005	-52.83932900000000	0.07353900000000	0.00000000000000	-0.08400700000000	0.00000000000000	-8.22111700000000	0.00000000000000	0.00000000000000	-16.99815000000000	0.00000000000000	
9.31663100000000	-11.48921400000000	87.53265000000000	-14.65065500000000	0.29887300000000	0.00000000000000	0.08808300000000	-60.47681900000000	789.88958900000000	-52.28553800000000	0.07263200000000	0.00000000000000	-0.08389600000000	0.00000000000000	-8.58544100000000	0.00000000000000	0.00000000000000	-17.02330500000000	0.00000000000000	
9.31829800000000	-11.10930700000000	93.97963400000000	-14.92657900000000	0.30144900000000	0.00000000000000	0.08865400000000	-61.46226700000000	786.15033600000004	-51.70141400000000	0.07173300000000	0.00000000000000	-0.08378000000000	0.00000000000000	-8.89057200000000	0.00000000000000	0.00000000000000	-17.04852600000000	0.00000000000000	
9.31996300000000	-10.57820400000000	100.35386699999999	-15.08909800000000	0.30391800000000	0.00000000000000	0.08919200000000	-62.44416500000000	782.22688200000005	-51.08731300000000	0.07084100000000	0.00000000000000	-0.08366100000000	0.00000000000000	-9.14240500000000	0.00000000000000	0.00000000000000	-17.07357600000000	0.00000000000000	
9.32163400000000	-9.91714600000000	106.69692600000000	-15.15357600000000	0.30629100000000	0.00000000000000	0.08970200000000	-63.42058400000000	778.11720600000001	-50.44365700000000	0.06995700000000	0.00000000000000	-0.08353800000000	0.00000000000000	-9.34801900000000	0.00000000000000	0.00000000000000	-17.09820200000000	0.00000000000000	
9.32329700000000	-9.14737400000000	113.05459800000000	-15.13582700000000	0.30857600000000	0.00000000000000	0.09018600000000	-64.38952200000000	773.81939599999998	-49.77092400000000	0.06908300000000	0.00000000000000	-0.08341100000000	0.00000000000000	-9.51493100000000	0.00000000000000	0.00000000000000	-17.12213600000000	0.00000000000000	
9.32496500000000	-8.28874800000000	119.47268699999999	-15.05089400000000	0.31078000000000	0.00000000000000	0.09064700000000	-65.34891300000000	769.33165399999996	-49.06965800000000	0.06821800000000	0.00000000000000	-0.08328000000000	0.00000000000000	-9.65044200000000	0.00000000000000	0.00000000000000	-17.14509200000000	0.00000000000000	
9.32663200000000	-7.35870600000000	125.99354200000001	-14.91210600000000	0.31290900000000	0.00000000000000	0.09108700000000	-66.29662399999999	764.65231300000005	-48.34046200000000	0.06736400000000	0.00000000000000	-0.08314500000000	0.00000000000000	-9.76110800000000	0.00000000000000	0.00000000000000	-17.16677100000000	0.00000000000000	
9.32829400000000	-6.37158800000000	132.65340699999999	-14.73042400000000	0.31496900000000	0.00000000000000	0.09150900000000	-67.23046700000000	759.77984300000003	-47.58400200000000	0.06652000000000	0.00000000000000	-0.08300600000000	0.00000000000000	-9.85236300000000	0.00000000000000	0.00000000000000	-17.18686000000000	0.00000000000000	
9.32996800000000	-5.33831700000000	139.48068799999999	-14.51408300000000	0.31696300000000	0.00000000000000	0.09191300000000	-68.14820100000000	754.71286799999996	-46.80100100000000	0.06568700000000	0.00000000000000	-0.08286300000000	0.00000000000000	-9.92828800000000	0.00000000000000	0.00000000000000	-17.20503200000000	0.00000000000000	
9.33162600000000	-4.26639400000000	146.49506900000000	-14.26850800000000	0.31889500000000	0.00000000000000	0.09230200000000	-69.04754100000000	749.45017299999995	-45.99224400000000	0.06486500000000	0.00000000000000	-0.08271600000000	0.00000000000000	-9.99152800000000	0.00000000000000	0.00000000000000	-17.22095100000000	0.00000000000000	
9.33329600000000	-3.16014700000000	153.70741599999999	-13.99644500000000	0.32076700000000	0.00000000000000	0.09267700000000	-69.92616200000001	743.99072200000001	-45.15857500000000	0.06405600000000	0.00000000000000	-0.08256500000000	0.00000000000000	-10.04332500000000	0.00000000000000	0.00000000000000	-17.23426700000000	0.00000000000000	
9.33496400000000	-2.02117500000000	161.12032300000001	-13.69828000000000	0.32258100000000	0.00000000000000	0.09303800000000	-70.78170700000000	738.33367099999998	-44.30089300000000	0.06325900000000	0.00000000000000	-0.08241100000000	0.00000000000000	-10.08365800000000	0.00000000000000	0.00000000000000	-17.24462500000000	0.00000000000000	
9.33662900000000	-0.84891900000000	168.72913399999999	-13.37247200000000	0.32433900000000	0.00000000000000	0.09338700000000	-71.61179199999999	732.47838200000001	-43.42015600000000	0.06247600000000	0.00000000000000	-0.08225200000000	0.00000000000000	-10.11144900000000	0.00000000000000	0.00000000000000	-17.25165900000000	0.00000000000000	
9.33829500000000	0.35872000000000	176.52328600000001	-13.01605200000000	0.32604200000000	0.00000000000000	0.09372600000000	-72.41401600000000	726.42443700000001	-42.51737200000000	0.06170500000000	0.00000000000000	-0.08209000000000	0.00000000000000	-10.12481700000000	0.00000000000000	0.00000000000000	-17.25499600000000	0.00000000000000	
9.33996700000000	1.60474500000000	184.48781500000001	-12.62514100000000	0.32769100000000	0.00000000000000	0.09405300000000	-73.18596700000001	720.17165000000000	-41.59360600000000	0.06094900000000	0.00000000000000	-0.08192400000000	0.00000000000000	-10.12134000000000	0.00000000000000	0.00000000000000	-17.25426100000000	0.00000000000000	
9.34163400000000	2.89249100000000	192.60487300000000	-12.19544000000000	0.32928600000000	0.00000000000000	0.09437100000000	-73.92522900000000	713.72008300000005	-40.64997000000000	0.06020600000000	0.00000000000000	-0.08175400000000	0.00000000000000	-10.09832600000000	0.00000000000000	0.00000000000000	-17.24907300000000	0.00000000000000	
9.34329600000000	4.22511800000000	200.85515500000000	-11.72266600000000	0.33082800000000	0.00000000000000	0.09468000000000	-74.62939000000000	707.07005700000002	-39.68762500000000	0.05947800000000	0.00000000000000	-0.08158100000000	0.00000000000000	-10.05304000000000	0.00000000000000	0.00000000000000	-17.23905100000000	0.00000000000000	
9.34496600000000	5.60521600000000	209.21914000000001	-11.20291100000000	0.33231700000000	0.00000000000000	0.09498100000000	-75.29605200000000	700.22216100000003	-38.70778000000000	0.05876400000000	0.00000000000000	-0.08140300000000	0.00000000000000	-9.98291500000000	0.00000000000000	0.00000000000000	-17.22381100000000	0.00000000000000	
9.34663100000000	7.03451700000000	217.67809800000001	-10.63291300000000	0.33375200000000	0.00000000000000	0.09527300000000	-75.92283600000000	693.17726200000004	-37.71168500000000	0.05806600000000	0.00000000000000	-0.08122300000000	0.00000000000000	-9.88570300000000	0.00000000000000	0.00000000000000	-17.20297200000000	0.00000000000000	
9.34829400000000	8.51372400000000	226.21483100000000	-10.01023300000000	0.33513300000000	0.00000000000000	0.09555800000000	-76.50739100000000	685.93651399999999	-36.70063300000000	0.05738200000000	0.00000000000000	-0.08103800000000	0.00000000000000	-9.75958100000000	0.00000000000000	0.00000000000000	-17.17615700000000	0.00000000000000	
9.34996000000000	10.04243500000000	234.81415300000000	-9.33334500000000	0.33646000000000	0.00000000000000	0.09583500000000	-77.04740400000000	678.50135599999999	-35.67595500000000	0.05671300000000	0.00000000000000	-0.08085000000000	0.00000000000000	-9.60322200000000	0.00000000000000	0.00000000000000	-17.14299200000000	0.00000000000000	
9.35163400000000	11.61916800000000	243.46311600000001	-8.60165400000000	0.33773100000000	0.00000000000000	0.09610600000000	-77.54060699999999	670.87352299999998	-34.63901900000000	0.05605900000000	0.00000000000000	-0.08065900000000	0.00000000000000	-9.41580500000000	0.00000000000000	0.00000000000000	-17.10311100000000	0.00000000000000	
9.35329600000000	13.24144400000000	252.15103099999999	-7.81544600000000	0.33894700000000	0.00000000000000	0.09637000000000	-77.98478799999999	663.05503899999997	-33.59122600000000	0.05542100000000	0.00000000000000	-0.08046400000000	0.00000000000000	-9.19701000000000	0.00000000000000	0.00000000000000	-17.05615500000000	0.00000000000000	
9.35496200000000	14.90592900000000	260.86931399999997	-6.97579500000000	0.34010600000000	0.00000000000000	0.09662800000000	-78.37779900000000	655.04822100000001	-32.53401100000000	0.05479700000000	0.00000000000000	-0.08026600000000	0.00000000000000	-8.94696700000000	0.00000000000000	0.00000000000000	-17.00177800000000	0.00000000000000	
9.35663000000000	16.60860400000000	269.61121400000002	-6.08443900000000	0.34120700000000	0.00000000000000	0.09688000000000	-78.71756300000000	646.85567400000002	-31.46883500000000	0.05418800000000	0.00000000000000	-0.08006400000000	0.00000000000000	-8.66620200000000	0.00000000000000	0.00000000000000	-16.93964500000000	0.00000000000000	
9.35829300000000	18.34494600000000	278.37145400000003	-5.14363500000000	0.34225000000000	0.00000000000000	0.09712700000000	-79.00208900000000	638.48028999999997	-30.39718400000000	0.05359500000000	0.00000000000000	-0.07986000000000	0.00000000000000	-8.35556200000000	0.00000000000000	0.00000000000000	-16.86943600000000	0.00000000000000	
